<?xml version="1.0" encoding="UTF-8"?>
<svg width="30px" height="30px" viewBox="0 0 30 30" version="1.1" xmlns="http://www.w3.org/2000/svg" xmlns:xlink="http://www.w3.org/1999/xlink">
    <!-- Generator: Sketch 53 (72520) - https://sketchapp.com -->
    <title>Thumb-icon</title>
    <desc>Created with Sketch.</desc>
    <defs>
        <polygon id="path-1" points="0 0.0506767263 24.9464768 0.0506767263 24.9464768 26 0 26"></polygon>
    </defs>
    <g id="Thumb-icon" stroke="none" stroke-width="1" fill="none" fill-rule="evenodd">
        <g id="Group-6" transform="translate(3.000000, 2.000000)">
            <g id="Group-3">
                <mask id="mask-2" fill="white">
                    <use xlink:href="#path-1"></use>
                </mask>
                <g id="Clip-2"></g>
                <path d="M23.3262366,13.1742931 C23.2779078,13.0788046 23.2779078,12.9667586 23.3262366,12.8763903 L24.8020388,10.0038225 C24.9626003,9.69521381 24.9892714,9.34431355 24.8821858,9.01442609 C24.7754345,8.68453862 24.5453543,8.41855396 24.2351939,8.25902967 L21.3422794,6.80136726 C21.2459559,6.75355652 21.1817179,6.66312174 21.1658088,6.55666138 L20.663135,3.37029821 C20.5615976,2.73698875 20.021357,2.27962813 19.3797794,2.27962813 C19.3100602,2.27962813 19.2406083,2.28508082 19.1763703,2.2957202 L15.9732955,2.80089156 C15.8716912,2.81705013 15.7594586,2.77961279 15.6845254,2.71052327 L13.3956217,0.428374936 C13.1496324,0.183669054 12.823496,0.0506767263 12.4759693,0.0506767263 C12.1283757,0.0506767263 11.8020388,0.183669054 11.5560495,0.428374936 L9.26193182,2.71052327 C9.19796123,2.77442609 9.11747995,2.80634425 9.0266377,2.80634425 C9.01072861,2.80634425 8.98927139,2.80634425 8.97309492,2.80089156 L5.77002005,2.2957202 C5.70056818,2.28508082 5.63084893,2.27962813 5.56687834,2.27962813 C4.92510027,2.27962813 4.38512701,2.73698875 4.28325535,3.37029821 L3.7806484,6.55666138 C3.76467246,6.66312174 3.70043449,6.75355652 3.60437834,6.80136726 L0.711263369,8.26428286 C0.401036096,8.41855396 0.171022727,8.6899913 0.0642045455,9.01961279 C-0.042881016,9.34950026 -0.0159425134,9.7006665 0.144351604,10.0092752 L1.62015374,12.881843 C1.66848262,12.977398 1.66848262,13.089178 1.62015374,13.1797458 L0.144351604,16.0523801 C-0.0159425134,16.3609223 -0.042881016,16.711889 0.0642045455,17.0417765 C0.171022727,17.3715974 0.401036096,17.6375821 0.711263369,17.7971064 L3.59889706,19.2493826 C3.69522059,19.2973928 3.75919118,19.3878276 3.77536765,19.494022 L4.27804144,22.6806512 C4.37964572,23.3136946 4.91988636,23.7711217 5.56139706,23.7711217 C5.63084893,23.7711217 5.70056818,23.765935 5.76453877,23.7552292 L8.96788102,23.2497918 C9.06948529,23.2339657 9.18171791,23.2710706 9.25665107,23.3401601 L11.5453543,25.6223749 C11.7912767,25.8670143 12.1176805,26.0000066 12.4652072,26.0000066 C12.8128008,26.0000066 13.1389372,25.8670143 13.3848596,25.6223749 L15.6738302,23.3401601 C15.7487634,23.2658839 15.8555147,23.228513 15.9626003,23.2497918 L19.1656751,23.7552292 C19.2353944,23.765935 19.3048463,23.7711217 19.3742981,23.7711217 C20.0160762,23.7711217 20.5561163,23.3136946 20.6576537,22.6806512 L21.1603275,19.494022 C21.176504,19.3878276 21.240742,19.2973928 21.3367981,19.2493826 L24.2299799,17.786467 C24.5401404,17.6321294 24.7699532,17.3609581 24.8769719,17.0310706 C24.9840575,16.7011831 24.957119,16.3502829 24.7968249,16.0416742 L23.3262366,13.1742931 Z" id="Fill-1" fill="#FFD400" mask="url(#mask-2)"></path>
            </g>
            <path d="M17.3971779,16.0664114 L17.3971779,16.0824136 C17.3714563,16.3180277 17.2833046,17.030561 16.2285868,17.030561 L11.2654028,17.030561 C10.7895519,17.030561 10.4070875,16.628832 10.4070875,16.1414678 L10.4070875,11.668885 L10.4120638,11.668885 C10.5156614,11.6419022 12.8990521,10.9242803 12.8990521,8.66924155 L12.8990521,6.97655644 C13.1110944,6.96055424 13.3849849,6.97655644 13.5919862,7.13189165 C13.8245153,7.30871937 13.9434296,7.66753031 13.9434296,8.19252315 L13.9434296,10.3671491 C13.9434296,10.6349685 14.1554718,10.8546473 14.413981,10.8546473 L17.2111159,10.8546473 C17.6763679,10.8546473 18.0537915,11.2349507 18.0691728,11.7117361 L17.3971779,16.0664114 Z M7.93056872,16.7197567 L9.46094356,16.7197567 L9.46094356,11.4117784 L7.93056872,11.4117784 L7.93056872,16.7197567 Z M17.1954761,9.87991883 L14.8688927,9.87991883 L14.8688927,8.19252315 C14.8688927,7.34085769 14.6207238,6.71951684 14.134791,6.34985922 C13.379944,5.77685976 12.392374,6.07132711 12.2787592,6.10902268 C12.0820982,6.17309846 11.9528436,6.36057199 11.9528436,6.56953802 L11.9528436,8.66924155 C11.9528436,10.1315351 10.3399397,10.672664 10.1639595,10.726027 C10.0039423,10.5494671 9.77619561,10.4367152 9.52809134,10.4367152 L7.87376131,10.4367152 C7.39286945,10.4367152 7,10.8439345 7,11.3422124 L7,16.7789447 C7,17.2768209 7.39286945,17.6840401 7.87376131,17.6840401 L9.52809134,17.6840401 C9.72475226,17.6840401 9.90034468,17.6144741 10.0504093,17.5073463 C10.3710254,17.8124595 10.7948514,18 11.2654028,18 L16.2285868,18 C17.4075183,18 18.1933865,17.3304517 18.327682,16.2055435 L18.9947006,11.8135074 C19,11.7865246 19,11.7650991 19,11.7384511 C18.9947006,10.7152473 18.188087,9.87991883 17.1954761,9.87991883 L17.1954761,9.87991883 Z" id="Fill-4" fill="#FFFFFF"></path>
        </g>
    </g>
</svg>