<?xml version="1.0" encoding="UTF-8"?>
<svg width="30px" height="30px" viewBox="0 0 30 30" version="1.1" xmlns="http://www.w3.org/2000/svg" xmlns:xlink="http://www.w3.org/1999/xlink">
    <!-- Generator: Sketch 53 (72520) - https://sketchapp.com -->
    <title>Verified-icon</title>
    <desc>Created with Sketch.</desc>
    <defs>
        <polygon id="path-1" points="0 0.0506767263 24.9464572 0.0506767263 24.9464572 26 0 26"></polygon>
    </defs>
    <g id="Verified-icon" stroke="none" stroke-width="1" fill="none" fill-rule="evenodd">
        <g id="Group-6" transform="translate(3.000000, 2.000000)">
            <g id="Group-3">
                <mask id="mask-2" fill="white">
                    <use xlink:href="#path-1"></use>
                </mask>
                <g id="Clip-2"></g>
                <path d="M23.3262366,13.1742931 C23.2779078,13.0788046 23.2779078,12.9667586 23.3262366,12.8763903 L24.8020388,10.0038225 C24.9626003,9.69521381 24.9892714,9.34431355 24.8821858,9.01442609 C24.7754345,8.68453862 24.5453543,8.41855396 24.2351939,8.25902967 L21.3422794,6.80136726 C21.2459559,6.75355652 21.1817179,6.66312174 21.1658088,6.55666138 L20.663135,3.37029821 C20.5615976,2.73698875 20.021357,2.27962813 19.3797794,2.27962813 C19.3100602,2.27962813 19.2406083,2.28508082 19.1763703,2.2957202 L15.9732955,2.80089156 C15.8716912,2.81705013 15.7594586,2.77961279 15.6845254,2.71052327 L13.3955548,0.428374936 C13.1496324,0.183669054 12.823496,0.0506767263 12.4759693,0.0506767263 C12.1283757,0.0506767263 11.8020388,0.183669054 11.5560495,0.428374936 L9.26193182,2.71052327 C9.19796123,2.77442609 9.11747995,2.80634425 9.0266377,2.80634425 C9.01072861,2.80634425 8.98933824,2.80634425 8.97309492,2.80089156 L5.77002005,2.2957202 C5.70056818,2.28508082 5.63084893,2.27962813 5.56687834,2.27962813 C4.92510027,2.27962813 4.38512701,2.73698875 4.28325535,3.37029821 L3.7806484,6.55666138 C3.76467246,6.66312174 3.70043449,6.75355652 3.60437834,6.80136726 L0.711263369,8.26428286 C0.401036096,8.41855396 0.171022727,8.6899913 0.0642045455,9.01961279 C-0.042881016,9.34950026 -0.0159425134,9.7006665 0.144351604,10.0092752 L1.62015374,12.881843 C1.66848262,12.977398 1.66848262,13.089178 1.62015374,13.1797458 L0.144351604,16.0523801 C-0.0159425134,16.3609223 -0.042881016,16.711889 0.0642045455,17.0417765 C0.171022727,17.3715974 0.401036096,17.6375821 0.711263369,17.7971064 L3.59889706,19.2493826 C3.69522059,19.2973928 3.75919118,19.3878276 3.77543449,19.494022 L4.27804144,22.6806512 C4.37964572,23.3136946 4.91988636,23.7711217 5.56139706,23.7711217 C5.63084893,23.7711217 5.70056818,23.765935 5.76453877,23.7552292 L8.96788102,23.2497918 C9.06948529,23.2339657 9.18171791,23.2710706 9.25671791,23.3401601 L11.5453543,25.6223749 C11.7912767,25.8670143 12.1176805,26.0000066 12.4652741,26.0000066 C12.8128008,26.0000066 13.1389372,25.8670143 13.3848596,25.6223749 L15.6738302,23.3401601 C15.7487634,23.2658839 15.8555147,23.228513 15.9626003,23.2497918 L19.1656751,23.7552292 C19.2353944,23.765935 19.3048463,23.7711217 19.3742981,23.7711217 C20.0160762,23.7711217 20.5561163,23.3136946 20.6576537,22.6806512 L21.1603275,19.494022 C21.176504,19.3878276 21.240742,19.2973928 21.3367981,19.2493826 L24.2299799,17.786467 C24.5401404,17.6321294 24.7699532,17.3609581 24.8769719,17.0310706 C24.9840575,16.7011831 24.957119,16.3502829 24.7968249,16.0416742 L23.3262366,13.1742931 Z" id="Fill-1" fill="#000000" mask="url(#mask-2)"></path>
            </g>
            <path d="M12.6220065,8.17799219 C12.820063,7.94067269 13.1798587,7.94066867 13.3779203,8.17798373 L16.1025235,11.4425702 L19.2989584,9.97284073 C19.6877827,9.79405829 20.1021748,10.1653709 19.9773667,10.5807228 L17.8553064,17.6427818 C17.7915255,17.8550399 17.5990668,18 17.3810396,18 L8.61896039,18 C8.40093322,18 8.20847452,17.8550399 8.14469361,17.6427818 L6.02263324,10.5807228 C5.89782567,10.1653725 6.31221442,9.7940603 6.70103838,9.97283927 L9.89753304,11.4425687 L12.6220065,8.17799219 Z M10.4116719,12.3861539 C10.2685047,12.5577027 10.0310857,12.6120459 9.82957304,12.5193916 L7.29186696,11.3525692 L8.98588758,16.9901438 L17.0141124,16.9901438 L18.70813,11.3525792 L16.1704962,12.5193901 C15.9689867,12.6120448 15.7315704,12.5577058 15.5884013,12.3861623 L12.9999754,9.28474176 L10.4116719,12.3861539 Z" id="Stroke-4" fill="#FFD400" fill-rule="nonzero"></path>
        </g>
    </g>
</svg>